<?xml version="1.0" encoding="UTF-8" standalone="no"?>
<svg width="267px" height="267px" viewBox="0 0 267 267" version="1.1" xmlns="http://www.w3.org/2000/svg" xmlns:xlink="http://www.w3.org/1999/xlink">
    <!-- Generator: Sketch 40.3 (33839) - http://www.bohemiancoding.com/sketch -->
    <title>icon-facebook-color</title>
    <desc>Created with Sketch.</desc>
    <defs>
        <polygon id="path-1" points="133.44655 267 266.893 267 266.893 0.105 133.44655 0.105 9.99999993e-05 0.105 9.99999993e-05 267 133.44655 267"></polygon>
    </defs>
    <g id="Styles" stroke="none" stroke-width="1" fill="none" fill-rule="evenodd">
        <g id="Social" transform="translate(-35.000000, -481.000000)">
            <g id="Facebook" transform="translate(35.000000, 480.000000)">
                <g id="Group-3" transform="translate(0.000000, 0.895000)">
                    <mask id="mask-2" fill="white">
                        <use xlink:href="#path-1"></use>
                    </mask>
                    <g id="Clip-2"></g>
                    <path d="M252.1631,267 C260.2971,267 266.8931,260.404 266.8931,252.27 L266.8931,14.836 C266.8931,6.699 260.2971,0.105 252.1631,0.105 L14.7301,0.105 C6.5931,0.105 9.99999993e-05,6.699 9.99999993e-05,14.836 L9.99999993e-05,252.27 C9.99999993e-05,260.404 6.5931,267 14.7301,267 L252.1631,267 Z" id="Fill-1" fill="#3C5999" mask="url(#mask-2)"></path>
                </g>
                <path d="M184.1514,267.895 L184.1514,164.54 L218.8444,164.54 L224.0384,124.26 L184.1514,124.26 L184.1514,98.543 C184.1514,86.881 187.3894,78.933 204.1134,78.933 L225.4434,78.924 L225.4434,42.898 C221.7534,42.408 209.0924,41.311 194.3624,41.311 C163.6094,41.311 142.5564,60.082 142.5564,94.555 L142.5564,124.26 L107.7754,124.26 L107.7754,164.54 L142.5564,164.54 L142.5564,267.895 L184.1514,267.895 Z" id="Fill-4" fill="#FEFEFE"></path>
            </g>
        </g>
    </g>
</svg>