<?xml version="1.0" encoding="UTF-8" standalone="no"?>
<svg width="1022px" height="719px" viewBox="0 0 1022 719" version="1.1" xmlns="http://www.w3.org/2000/svg" xmlns:xlink="http://www.w3.org/1999/xlink">
    <!-- Generator: Sketch 40.3 (33839) - http://www.bohemiancoding.com/sketch -->
    <title>icon-youtube-color</title>
    <desc>Created with Sketch.</desc>
    <defs>
        <linearGradient x1="50%" y1="0%" x2="50%" y2="100%" id="linearGradient-1">
            <stop stop-color="#E52D26" offset="0%"></stop>
            <stop stop-color="#C0171E" offset="100%"></stop>
        </linearGradient>
    </defs>
    <g id="Styles" stroke="none" stroke-width="1" fill="none" fill-rule="evenodd">
        <g id="Social" transform="translate(-379.000000, -47.000000)">
            <g id="Youtube" transform="translate(379.000000, 47.000000)">
                <polygon id="Fill-1" fill="#FFFFFF" points="405.2251 491.7042 681.2251 348.7042 405.2251 204.7042"></polygon>
                <polygon id="Fill-2" fill="#E8E0E0" points="405.2251 204.7042 647.2671 366.3292 681.2251 348.7042"></polygon>
                <path d="M510.503,0 C510.503,0 296.095,0 153.152,10.333 L153.152,10.333 C133.185,12.714 89.663,12.916 50.807,53.599 L50.807,53.599 C20.182,84.596 10.215,154.985 10.215,154.985 L10.215,154.985 C10.215,154.985 0,237.645 0,320.303 L0,320.303 L0,397.797 C0,480.455 10.215,563.114 10.215,563.114 L10.215,563.114 C10.215,563.114 20.182,633.504 50.807,664.501 L50.807,664.501 C89.663,705.185 140.702,703.899 163.436,708.162 L163.436,708.162 C245.154,715.998 510.725,718.423 510.725,718.423 L510.725,718.423 C510.725,718.423 725.359,718.1 868.297,707.768 L868.297,707.768 C888.262,705.386 931.801,705.185 970.642,664.501 L970.642,664.501 C1001.267,633.504 1011.248,563.114 1011.248,563.114 L1011.248,563.114 C1011.248,563.114 1021.449,480.455 1021.449,397.797 L1021.449,397.797 L1021.449,320.303 C1021.449,237.645 1011.248,154.985 1011.248,154.985 L1011.248,154.985 C1011.248,154.985 1001.267,84.596 970.642,53.599 L970.642,53.599 C931.801,12.916 888.262,12.714 868.297,10.333 L868.297,10.333 C725.359,0 510.946,0 510.946,0 L510.946,0 L510.503,0 Z M405.225,204.704 L681.225,348.704 L405.272,491.704 L405.225,204.704 Z" id="Fill-4" fill="url(#linearGradient-1)"></path>
            </g>
        </g>
    </g>
</svg>