<?xml version="1.0" encoding="UTF-8" standalone="no"?>
<svg width="250px" height="204px" viewBox="0 0 250 204" version="1.1" xmlns="http://www.w3.org/2000/svg" xmlns:xlink="http://www.w3.org/1999/xlink">
    <!-- Generator: Sketch 40.3 (33839) - http://www.bohemiancoding.com/sketch -->
    <title>icon-twitter-color</title>
    <desc>Created with Sketch.</desc>
    <defs></defs>
    <g id="Styles" stroke="none" stroke-width="1" fill="none" fill-rule="evenodd">
        <g id="Social" transform="translate(-44.000000, -241.000000)" fill="#1DA1F2">
            <g id="Twitter_Logo_Blue" transform="translate(44.000000, 241.000000)">
                <path d="M78.62,203.13969 C172.96,203.13969 224.56,124.97969 224.56,57.1996903 C224.56,54.9796903 224.56,52.7696903 224.41,50.5696903 C234.448314,43.3087989 243.113555,34.3184843 250,24.0196903 C240.638791,28.167708 230.708293,30.8879768 220.54,32.0896903 C231.24744,25.6795109 239.261235,15.5974102 243.09,3.71969031 C233.021575,9.69424347 222.006461,13.9048105 210.52,16.1696903 C194.620828,-0.736366898 169.357194,-4.87418384 148.895493,6.07648959 C128.433792,17.027163 117.86275,40.3429476 123.11,62.9496903 C81.8689574,60.8821857 43.4447578,41.402923 17.4,9.35969031 C3.78622756,32.7961376 10.7398788,62.7782851 33.28,77.8296903 C25.117412,77.5877658 17.1327937,75.3858221 10,71.4096903 L10,72.0596903 C10.0066813,96.47562 27.2175149,117.505042 51.15,122.33969 C43.598696,124.399091 35.6758059,124.700133 27.99,123.21969 C34.7094793,144.113919 53.9657456,158.427529 75.91,158.83969 C57.7473504,173.11401 35.3105951,180.862968 12.21,180.83969 C8.12903569,180.831856 4.05204065,180.584765 0,180.09969 C23.4563595,195.152456 50.749134,203.13686 78.62,203.09969" id="Shape"></path>
            </g>
        </g>
    </g>
</svg>